<?xml version="1.0" encoding="utf-8"?>
<!-- Generator: Adobe Illustrator 21.1.0, SVG Export Plug-In . SVG Version: 6.00 Build 0)  -->
<svg version="1.1" id="type" xmlns="http://www.w3.org/2000/svg" xmlns:xlink="http://www.w3.org/1999/xlink" x="0px" y="0px"
	 width="124.73px" height="26.16px" viewBox="0 0 124.73 26.16" enable-background="new 0 0 124.73 26.16" xml:space="preserve">
<g>
	<g id="XMLID_5_">
		<g>
			<path d="M31.368,12.324c0-0.594,0.481-1.067,1.075-1.067c0.603,0,1.085,0.474,1.085,1.067c0,0.585-0.482,1.059-1.085,1.059
				C31.849,13.382,31.368,12.909,31.368,12.324z M31.514,14.707h1.858v9.054h-1.858V14.707z"/>
			<path d="M38.324,23.761V13.003H34.52v-1.661h9.526v1.661h-3.795v10.758H38.324z"/>
			<path d="M51.825,23.761h-1.781v-1.558h-0.043c-0.517,1.084-1.42,1.661-2.806,1.661c-1.971,0-3.176-1.273-3.176-3.348v-5.81h1.858
				v5.448c0,1.377,0.654,2.108,1.937,2.108c1.343,0,2.151-0.93,2.151-2.341v-5.216h1.859V23.761z"/>
			<path d="M53.666,14.707h1.772v1.541h0.043c0.543-1.085,1.455-1.644,2.849-1.644c1.997,0,3.142,1.282,3.142,3.355v5.801h-1.867
				v-5.439c0-1.359-0.629-2.116-1.937-2.116c-1.334,0-2.144,0.946-2.144,2.341v5.215h-1.858V14.707z"/>
			<path d="M71.032,21.102c-0.25,1.644-1.851,2.771-3.898,2.771c-2.634,0-4.269-1.765-4.269-4.596c0-2.84,1.644-4.682,4.19-4.682
				c2.505,0,4.08,1.721,4.08,4.466v0.637h-6.395v0.112c0,1.549,0.973,2.564,2.436,2.564c1.032,0,1.842-0.49,2.091-1.273H71.032z
				 M64.75,18.4h4.526c-0.043-1.386-0.93-2.298-2.221-2.298C65.773,16.102,64.844,17.032,64.75,18.4z"/>
			<path d="M75.962,14.605c2.006,0,3.442,1.109,3.485,2.71H77.7c-0.077-0.8-0.757-1.29-1.79-1.29c-1.007,0-1.678,0.464-1.678,1.17
				c0,0.542,0.447,0.903,1.386,1.136l1.523,0.354c1.824,0.438,2.513,1.109,2.513,2.436c0,1.635-1.549,2.754-3.761,2.754
				c-2.135,0-3.571-1.094-3.709-2.746h1.841c0.13,0.869,0.826,1.334,1.954,1.334c1.11,0,1.807-0.456,1.807-1.179
				c0-0.56-0.344-0.86-1.29-1.102l-1.618-0.396c-1.635-0.396-2.461-1.231-2.461-2.487C72.417,15.698,73.853,14.605,75.962,14.605z"
				/>
			<path d="M86.256,20.301c0.138,1.231,1.334,2.04,2.969,2.04c1.566,0,2.693-0.809,2.693-1.919c0-0.964-0.68-1.541-2.289-1.937
				l-1.609-0.388c-2.28-0.551-3.339-1.617-3.339-3.348c0-2.143,1.867-3.614,4.518-3.614c2.625,0,4.424,1.472,4.484,3.614h-1.876
				c-0.112-1.239-1.137-1.988-2.634-1.988s-2.521,0.758-2.521,1.859c0,0.878,0.654,1.395,2.255,1.79l1.368,0.336
				c2.548,0.603,3.605,1.626,3.605,3.442c0,2.323-1.85,3.778-4.793,3.778c-2.754,0-4.613-1.421-4.733-3.667H86.256z"/>
			<path d="M97.803,12.565v2.143h1.722v1.472h-1.722v4.991c0,0.775,0.345,1.137,1.102,1.137c0.189,0,0.491-0.026,0.611-0.043v1.463
				c-0.206,0.052-0.619,0.086-1.032,0.086c-1.833,0-2.548-0.688-2.548-2.444v-5.189H94.62v-1.472h1.316v-2.143H97.803z"/>
			<path d="M100.433,19.235c0-2.849,1.678-4.639,4.294-4.639c2.625,0,4.295,1.79,4.295,4.639c0,2.856-1.661,4.639-4.295,4.639
				C102.094,23.873,100.433,22.091,100.433,19.235z M107.129,19.235c0-1.954-0.896-3.107-2.401-3.107s-2.4,1.162-2.4,3.107
				c0,1.962,0.895,3.106,2.4,3.106S107.129,21.197,107.129,19.235z"/>
			<path d="M110.466,14.707h1.772v1.541h0.043c0.284-1.024,1.11-1.636,2.178-1.636c0.267,0,0.49,0.035,0.637,0.069v1.738
				c-0.146-0.061-0.474-0.112-0.835-0.112c-1.196,0-1.937,0.81-1.937,2.083v5.37h-1.858V14.707z"/>
			<path d="M123.63,21.102c-0.25,1.644-1.851,2.771-3.898,2.771c-2.634,0-4.269-1.765-4.269-4.596c0-2.84,1.644-4.682,4.19-4.682
				c2.505,0,4.08,1.721,4.08,4.466v0.637h-6.395v0.112c0,1.549,0.973,2.564,2.436,2.564c1.032,0,1.842-0.49,2.091-1.273H123.63z
				 M117.347,18.4h4.526c-0.043-1.386-0.93-2.298-2.221-2.298C118.371,16.102,117.442,17.032,117.347,18.4z"/>
		</g>
	</g>
	<path d="M17.444,0c0.25,0,0.5,0,0.75,0.002c0.253,0.002,0.506,0.004,0.759,0.011c0.552,0.015,1.108,0.047,1.653,0.145
		c0.553,0.099,1.068,0.262,1.571,0.518c0.494,0.252,0.946,0.58,1.338,0.972c0.392,0.392,0.721,0.844,0.972,1.338
		c0.256,0.503,0.418,1.018,0.518,1.572c0.098,0.545,0.13,1.101,0.145,1.653c0.007,0.253,0.01,0.506,0.011,0.759
		c0.001,0.241,0.002,0.483,0.002,0.724v9.775c0,0.241,0,0.483-0.002,0.724c-0.002,0.253-0.004,0.506-0.011,0.759
		c-0.015,0.551-0.047,1.107-0.145,1.653c-0.099,0.554-0.262,1.069-0.518,1.572c-0.252,0.494-0.58,0.946-0.972,1.338
		c-0.392,0.392-0.844,0.721-1.338,0.972c-0.503,0.256-1.018,0.418-1.571,0.518c-0.545,0.098-1.102,0.131-1.653,0.145
		c-0.253,0.007-0.506,0.01-0.759,0.011c-0.25,0.002-0.5,0.002-0.75,0.002h-0.152H7.872H7.72c-0.25,0-0.5,0-0.75-0.002
		c-0.253-0.002-0.506-0.004-0.759-0.011c-0.552-0.015-1.108-0.047-1.653-0.145c-0.553-0.099-1.068-0.262-1.571-0.518
		c-0.494-0.252-0.946-0.58-1.338-0.972c-0.392-0.392-0.721-0.844-0.972-1.338c-0.256-0.503-0.418-1.018-0.518-1.572
		c-0.098-0.545-0.13-1.101-0.145-1.653c-0.007-0.253-0.01-0.506-0.011-0.759C0,17.953,0,17.712,0,17.471v-0.178V7.872V7.693
		C0,7.452,0,7.211,0.002,6.97c0.002-0.253,0.004-0.506,0.011-0.759C0.028,5.659,0.06,5.103,0.158,4.558
		C0.258,4.004,0.42,3.489,0.676,2.986c0.252-0.494,0.58-0.946,0.972-1.338C2.04,1.256,2.492,0.928,2.986,0.676
		C3.489,0.42,4.004,0.258,4.557,0.158C5.103,0.06,5.659,0.028,6.211,0.013c0.253-0.007,0.506-0.01,0.759-0.011C7.22,0,7.47,0,7.72,0
		H17.444z M21.882,9.913c-0.016-0.049-0.046-0.093-0.09-0.13c-0.044-0.038-0.1-0.067-0.166-0.09
		c-0.011-0.004-0.022-0.008-0.033-0.011c-0.094-0.029-0.192-0.044-0.291-0.05c-0.288-0.016-0.577-0.023-0.865-0.023l-5.442,0
		l-1.682-5.175c-0.089-0.274-0.186-0.546-0.289-0.815c-0.035-0.092-0.08-0.181-0.137-0.261c-0.007-0.01-0.014-0.019-0.021-0.028
		c-0.043-0.056-0.088-0.1-0.137-0.13c-0.049-0.03-0.1-0.045-0.152-0.045c-0.051,0-0.103,0.015-0.152,0.045
		c-0.05,0.031-0.094,0.074-0.137,0.13c-0.007,0.009-0.014,0.019-0.021,0.028c-0.057,0.081-0.102,0.169-0.137,0.261
		c-0.104,0.269-0.2,0.541-0.289,0.815l-1.682,5.176H4.717c-0.289,0-0.577,0.008-0.865,0.023c-0.098,0.005-0.196,0.02-0.291,0.05
		C3.55,9.685,3.539,9.689,3.528,9.693c-0.067,0.023-0.122,0.052-0.166,0.09c-0.044,0.037-0.074,0.081-0.09,0.13
		c-0.016,0.049-0.017,0.102-0.004,0.158c0.014,0.057,0.041,0.113,0.081,0.171c0.007,0.01,0.013,0.019,0.021,0.029
		c0.059,0.079,0.129,0.149,0.206,0.211c0.224,0.182,0.453,0.358,0.686,0.527l4.402,3.198l-1.681,5.176
		c-0.089,0.274-0.171,0.551-0.245,0.83c-0.025,0.095-0.041,0.193-0.042,0.292c0,0.012,0,0.024,0,0.035
		c0.002,0.071,0.012,0.132,0.035,0.186c0.022,0.053,0.054,0.096,0.096,0.126c0.042,0.03,0.092,0.048,0.149,0.053
		c0.058,0.005,0.12-0.004,0.188-0.025c0.011-0.003,0.022-0.007,0.034-0.011c0.093-0.032,0.182-0.077,0.264-0.131
		c0.242-0.157,0.48-0.32,0.714-0.49l4.403-3.199l4.384,3.185c0.233,0.17,0.471,0.333,0.713,0.49
		c0.083,0.054,0.171,0.099,0.264,0.131c0.011,0.004,0.022,0.007,0.033,0.011c0.068,0.02,0.129,0.029,0.188,0.025
		c0.057-0.005,0.108-0.022,0.149-0.053c0.042-0.03,0.074-0.073,0.096-0.126c0.022-0.054,0.033-0.115,0.035-0.186
		c0-0.012,0-0.023,0-0.035c-0.001-0.099-0.017-0.196-0.043-0.292c-0.074-0.279-0.156-0.555-0.245-0.83l-1.675-5.154l0.011-0.008l0,0
		l4.403-3.199c0.234-0.17,0.462-0.345,0.686-0.527c0.077-0.062,0.147-0.132,0.206-0.211c0.007-0.01,0.014-0.019,0.021-0.029
		c0.04-0.058,0.068-0.114,0.081-0.171C21.899,10.016,21.898,9.962,21.882,9.913z"/>
	<g id="XMLID_1_">
		<g id="XMLID_2_">
			<g id="XMLID_3_">
				<g>
					<path d="M33.571,7.581c-1.716,0-2.799-1.221-2.799-3.177c0-1.93,1.095-3.172,2.791-3.172c1.376,0,2.375,0.781,2.581,2.006
						h-0.944c-0.235-0.73-0.81-1.128-1.637-1.128c-1.12,0-1.83,0.885-1.83,2.287c0,1.427,0.713,2.308,1.851,2.308
						c0.99,0,1.67-0.604,1.679-1.502v-0.13h-1.561V4.283h2.484v0.755C36.185,6.586,35.157,7.581,33.571,7.581z"/>
					<path d="M41.356,6.2c-0.206,0.818-0.936,1.322-1.98,1.322c-1.309,0-2.11-0.898-2.11-2.358c0-1.46,0.818-2.388,2.106-2.388
						c1.271,0,2.039,0.869,2.039,2.304v0.314h-3.227v0.051c0.029,0.801,0.495,1.309,1.217,1.309c0.545,0,0.919-0.197,1.087-0.554
						H41.356z M38.184,4.727h2.308c-0.021-0.717-0.458-1.183-1.125-1.183S38.235,4.014,38.184,4.727z"/>
					<path d="M43.835,1.727v1.158h0.991v0.76h-0.991v2.35c0,0.479,0.197,0.688,0.646,0.688c0.138,0,0.218-0.008,0.344-0.021v0.751
						c-0.147,0.025-0.315,0.046-0.491,0.046c-1.003,0-1.401-0.353-1.401-1.234V3.645h-0.726v-0.76h0.726V1.727H43.835z"/>
					<path d="M48.367,1.513c0-0.314,0.248-0.554,0.583-0.554c0.335,0,0.583,0.239,0.583,0.554c0,0.311-0.248,0.55-0.583,0.55
						C48.615,2.063,48.367,1.824,48.367,1.513z M48.502,2.864H49.4v4.57h-0.898V2.864z"/>
					<path d="M52.072,1.727v1.158h0.991v0.76h-0.991v2.35c0,0.479,0.197,0.688,0.646,0.688c0.139,0,0.219-0.008,0.345-0.021v0.751
						c-0.147,0.025-0.315,0.046-0.491,0.046c-1.003,0-1.401-0.353-1.401-1.234V3.645h-0.727v-0.76h0.727V1.727H52.072z"/>
					<path d="M56.496,5.147c0-1.473,0.822-2.371,2.157-2.371c1.33,0,2.152,0.898,2.152,2.371c0,1.481-0.818,2.375-2.152,2.375
						C57.314,7.522,56.496,6.628,56.496,5.147z M59.878,5.147c0-0.99-0.444-1.569-1.225-1.569c-0.785,0-1.226,0.579-1.226,1.569
						c0,0.999,0.44,1.574,1.226,1.574C59.433,6.721,59.878,6.141,59.878,5.147z"/>
					<path d="M62.008,2.864h0.869V3.59h0.066c0.223-0.508,0.676-0.814,1.364-0.814c1.02,0,1.582,0.613,1.582,1.699v2.958h-0.902
						V4.702c0-0.734-0.319-1.099-0.986-1.099c-0.667,0-1.091,0.445-1.091,1.158v2.673h-0.902V2.864z"/>
				</g>
			</g>
		</g>
	</g>
</g>
<g>
</g>
<g>
</g>
<g>
</g>
<g>
</g>
<g>
</g>
<g>
</g>
</svg>
